<svg width="20" height="20" viewBox="0 0 24 24" fill="none" xmlns="http://www.w3.org/2000/svg">
<path d="M9.60066 12.9851C9.21013 13.3756 9.21013 14.0088 9.60066 14.3993C9.99118 14.7899 10.6243 14.7899 11.0149 14.3993L9.60066 12.9851ZM15.861 9.55317C16.2515 9.16265 16.2515 8.52948 15.861 8.13896C15.4705 7.74844 14.8373 7.74844 14.4468 8.13896L15.861 9.55317ZM20.1113 5.88855L21.0671 6.18263L20.1113 5.88855ZM16.0207 19.1831L16.9764 19.4772L16.0207 19.1831ZM13.0603 19.4281L12.1659 19.8753L13.0603 19.4281ZM10.4694 14.2462L9.57496 14.6934L10.4694 14.2462ZM9.75383 13.5306L9.30662 14.4251L9.75383 13.5306ZM4.57192 10.9397L5.01914 10.0453L4.57192 10.9397ZM4.81704 7.97943L4.52296 7.02365L4.81704 7.97943ZM18.1116 3.88879L18.4057 4.84457L18.1116 3.88879ZM2.75601 9.75891L3.67965 9.37566L2.75601 9.75891ZM2.83169 8.84567L1.98362 8.31578L2.83169 8.84567ZM10.2775 13.904L9.48548 14.5146H9.48548L10.2775 13.904ZM10.0962 13.7225L9.48572 14.5145L10.0962 13.7225ZM15.1544 21.1684L14.6246 20.3203L15.1544 21.1684ZM14.2416 21.244L14.6248 20.3203L14.2416 21.244ZM20.4277 4.16662L21.3665 3.822L20.4277 4.16662ZM19.8334 3.57251L19.4888 4.51125L19.8334 3.57251ZM11.0149 14.3993L15.861 9.55317L14.4468 8.13896L9.60066 12.9851L11.0149 14.3993ZM19.1555 5.59446L15.0649 18.889L16.9764 19.4772L21.0671 6.18263L19.1555 5.59446ZM13.9548 18.9809L11.3638 13.799L9.57496 14.6934L12.1659 19.8753L13.9548 18.9809ZM10.201 12.6362L5.01914 10.0453L4.12471 11.8341L9.30662 14.4251L10.201 12.6362ZM5.11113 8.93521L18.4057 4.84457L17.8175 2.93301L4.52296 7.02365L5.11113 8.93521ZM5.01914 10.0453C4.44381 9.7576 4.07331 9.57134 3.8231 9.41749C3.54158 9.24438 3.61919 9.22995 3.67965 9.37566L1.83236 10.1422C2.03573 10.6323 2.46365 10.9294 2.77553 11.1212C3.11873 11.3322 3.58473 11.5641 4.12471 11.8341L5.01914 10.0453ZM4.52296 7.02365C3.94592 7.2012 3.44813 7.35337 3.07489 7.50512C2.73571 7.64302 2.26478 7.86578 1.98362 8.31578L3.67976 9.37555C3.59618 9.50932 3.52202 9.48231 3.82818 9.35784C4.10026 9.24721 4.49635 9.12437 5.11113 8.93521L4.52296 7.02365ZM3.67965 9.37566L3.67976 9.37555L1.98362 8.31578C1.64103 8.86409 1.58439 9.54455 1.83236 10.1422L3.67965 9.37566ZM11.3638 13.799C11.2922 13.6557 11.2013 13.4645 11.0695 13.2935L9.48548 14.5146C9.47292 14.4983 9.471 14.4917 9.48562 14.5184C9.50395 14.5518 9.52756 14.5986 9.57496 14.6934L11.3638 13.799ZM9.30662 14.4251C9.40177 14.4727 9.44865 14.4962 9.48234 14.5147C9.50926 14.5294 9.50243 14.5274 9.48572 14.5145L10.7067 12.9305C10.5355 12.7985 10.3431 12.7073 10.201 12.6362L9.30662 14.4251ZM11.0695 13.2935C10.9656 13.1587 10.8441 13.0364 10.7067 12.9305L9.48572 14.5145L9.48548 14.5146L11.0695 13.2935ZM15.0649 18.889C14.8757 19.5038 14.7529 19.8999 14.6423 20.1719C14.5178 20.4781 14.4908 20.4039 14.6246 20.3203L15.6843 22.0165C16.1343 21.7353 16.3571 21.2644 16.495 20.9252C16.6467 20.552 16.7989 20.0543 16.9764 19.4772L15.0649 18.889ZM12.1659 19.8753C12.436 20.4155 12.668 20.8815 12.8792 21.2247C13.0712 21.5367 13.3684 21.9643 13.8583 22.1676L14.6248 20.3203C14.7703 20.3807 14.7557 20.458 14.5826 20.1766C14.4287 19.9266 14.2423 19.5561 13.9548 18.9809L12.1659 19.8753ZM14.6246 20.3203L14.6248 20.3203L13.8583 22.1676C14.4558 22.4155 15.1359 22.3592 15.6843 22.0165L14.6246 20.3203ZM21.0671 6.18263C21.2053 5.73324 21.3305 5.32999 21.3998 5.00076C21.4668 4.68223 21.525 4.2539 21.3665 3.822L19.489 4.51125C19.4466 4.39583 19.4908 4.35998 19.4426 4.58906C19.3967 4.80742 19.3055 5.1069 19.1555 5.59446L21.0671 6.18263ZM18.4057 4.84457C18.8932 4.69456 19.1927 4.60347 19.4109 4.55758C19.6399 4.50945 19.6041 4.55358 19.4888 4.51125L20.178 2.63377C19.7462 2.47526 19.3181 2.53338 18.9995 2.60036C18.6702 2.66959 18.267 2.79472 17.8175 2.93301L18.4057 4.84457ZM21.3665 3.822C21.1639 3.27029 20.729 2.83603 20.178 2.63377L19.4888 4.51125L19.489 4.51125L21.3665 3.822Z" fill="white"/>
</svg>
